<svg xmlns="http://www.w3.org/2000/svg" version="1.1" xmlns:xlink="http://www.w3.org/1999/xlink" xmlns:svgjs="http://svgjs.com/svgjs" width="1440" height="560" preserveAspectRatio="none" viewBox="0 0 1440 560"><g mask="url(&quot;#SvgjsMask1040&quot;)" fill="none"><rect width="1440" height="560" x="0" y="0" fill="rgba(0, 0, 0, 1)"></rect><path d="M-60.5 372.36L-60.5 372.36" stroke="rgba(0, 88, 93, 1)" stroke-width="1.5"></path><path d="M-60.5 372.36L70.29 351.57" stroke="rgba(0, 88, 93, 1)" stroke-width="1.5"></path><path d="M-60.5 372.36L-41.65 528.93" stroke="rgba(0, 88, 93, 1)" stroke-width="1.5"></path><path d="M-60.5 372.36L79.34 560.37" stroke="rgba(0, 88, 93, 1)" stroke-width="1.5"></path><path d="M-60.5 372.36L-58.18 638.4" stroke="rgba(0, 88, 93, 1)" stroke-width="1.5"></path><path d="M-60.5 372.36L199.16 500.71" stroke="rgba(0, 88, 93, 1)" stroke-width="1.5"></path><path d="M-60.5 372.36L229.83 376.35" stroke="rgba(0, 88, 93, 1)" stroke-width="1.5"></path><path d="M-41.65 528.93L-41.65 528.93" stroke="rgba(0, 88, 93, 1)" stroke-width="1.5"></path><path d="M-41.65 528.93L-58.18 638.4" stroke="rgba(0, 88, 93, 1)" stroke-width="1.5"></path><path d="M-41.65 528.93L79.34 560.37" stroke="rgba(0, 88, 93, 1)" stroke-width="1.5"></path><path d="M-58.18 638.4L-58.18 638.4" stroke="rgba(0, 88, 93, 1)" stroke-width="1.5"></path><path d="M70.29 351.57L70.29 351.57" stroke="rgba(0, 88, 93, 1)" stroke-width="1.5"></path><path d="M70.29 351.57L229.83 376.35" stroke="rgba(0, 88, 93, 1)" stroke-width="1.5"></path><path d="M70.29 351.57L199.16 500.71" stroke="rgba(0, 88, 93, 1)" stroke-width="1.5"></path><path d="M70.29 351.57L79.34 560.37" stroke="rgba(0, 88, 93, 1)" stroke-width="1.5"></path><path d="M79.34 560.37L79.34 560.37" stroke="rgba(0, 88, 93, 1)" stroke-width="1.5"></path><path d="M79.34 560.37L110 684.61" stroke="rgba(0, 88, 93, 1)" stroke-width="1.5"></path><path d="M79.34 560.37L199.16 500.71" stroke="rgba(0, 88, 93, 1)" stroke-width="1.5"></path><path d="M110 684.61L110 684.61" stroke="rgba(0, 88, 93, 1)" stroke-width="1.5"></path><path d="M110 684.61L203.19 659.51" stroke="rgba(0, 88, 93, 1)" stroke-width="1.5"></path><path d="M110 684.61L-58.18 638.4" stroke="rgba(0, 88, 93, 1)" stroke-width="1.5"></path><path d="M229.83 376.35L229.83 376.35" stroke="rgba(0, 88, 93, 1)" stroke-width="1.5"></path><path d="M229.83 376.35L339.6 362.7" stroke="rgba(0, 88, 93, 1)" stroke-width="1.5"></path><path d="M229.83 376.35L199.16 500.71" stroke="rgba(0, 88, 93, 1)" stroke-width="1.5"></path><path d="M199.16 500.71L199.16 500.71" stroke="rgba(0, 88, 93, 1)" stroke-width="1.5"></path><path d="M199.16 500.71L203.19 659.51" stroke="rgba(0, 88, 93, 1)" stroke-width="1.5"></path><path d="M199.16 500.71L389.35 520.6" stroke="rgba(0, 88, 93, 1)" stroke-width="1.5"></path><path d="M199.16 500.71L339.6 362.7" stroke="rgba(0, 88, 93, 1)" stroke-width="1.5"></path><path d="M203.19 659.51L203.19 659.51" stroke="rgba(0, 88, 93, 1)" stroke-width="1.5"></path><path d="M203.19 659.51L342.34 680.98" stroke="rgba(0, 88, 93, 1)" stroke-width="1.5"></path><path d="M203.19 659.51L79.34 560.37" stroke="rgba(0, 88, 93, 1)" stroke-width="1.5"></path><path d="M203.19 659.51L389.35 520.6" stroke="rgba(0, 88, 93, 1)" stroke-width="1.5"></path><path d="M203.19 659.51L-58.18 638.4" stroke="rgba(0, 88, 93, 1)" stroke-width="1.5"></path><path d="M339.6 362.7L339.6 362.7" stroke="rgba(0, 88, 93, 1)" stroke-width="1.5"></path><path d="M339.6 362.7L389.35 520.6" stroke="rgba(0, 88, 93, 1)" stroke-width="1.5"></path><path d="M339.6 362.7L535.12 367.49" stroke="rgba(0, 88, 93, 1)" stroke-width="1.5"></path><path d="M339.6 362.7L70.29 351.57" stroke="rgba(0, 88, 93, 1)" stroke-width="1.5"></path><path d="M339.6 362.7L555.78 546.2" stroke="rgba(0, 88, 93, 1)" stroke-width="1.5"></path><path d="M389.35 520.6L389.35 520.6" stroke="rgba(0, 88, 93, 1)" stroke-width="1.5"></path><path d="M389.35 520.6L342.34 680.98" stroke="rgba(0, 88, 93, 1)" stroke-width="1.5"></path><path d="M389.35 520.6L555.78 546.2" stroke="rgba(0, 88, 93, 1)" stroke-width="1.5"></path><path d="M342.34 680.98L342.34 680.98" stroke="rgba(0, 88, 93, 1)" stroke-width="1.5"></path><path d="M342.34 680.98L506.96 675.76" stroke="rgba(0, 88, 93, 1)" stroke-width="1.5"></path><path d="M535.12 367.49L535.12 367.49" stroke="rgba(0, 88, 93, 1)" stroke-width="1.5"></path><path d="M535.12 367.49L638.39 361.34" stroke="rgba(0, 88, 93, 1)" stroke-width="1.5"></path><path d="M535.12 367.49L555.78 546.2" stroke="rgba(0, 88, 93, 1)" stroke-width="1.5"></path><path d="M555.78 546.2L555.78 546.2" stroke="rgba(0, 88, 93, 1)" stroke-width="1.5"></path><path d="M555.78 546.2L506.96 675.76" stroke="rgba(0, 88, 93, 1)" stroke-width="1.5"></path><path d="M555.78 546.2L682.56 672.8" stroke="rgba(0, 88, 93, 1)" stroke-width="1.5"></path><path d="M555.78 546.2L638.39 361.34" stroke="rgba(0, 88, 93, 1)" stroke-width="1.5"></path><path d="M506.96 675.76L506.96 675.76" stroke="rgba(0, 88, 93, 1)" stroke-width="1.5"></path><path d="M506.96 675.76L682.56 672.8" stroke="rgba(0, 88, 93, 1)" stroke-width="1.5"></path><path d="M682.13 208.42L682.13 208.42" stroke="rgba(0, 88, 93, 1)" stroke-width="1.5"></path><path d="M682.13 208.42L638.39 361.34" stroke="rgba(0, 88, 93, 1)" stroke-width="1.5"></path><path d="M682.13 208.42L852.92 226.22" stroke="rgba(0, 88, 93, 1)" stroke-width="1.5"></path><path d="M682.13 208.42L535.12 367.49" stroke="rgba(0, 88, 93, 1)" stroke-width="1.5"></path><path d="M682.13 208.42L857.73 51.61" stroke="rgba(0, 88, 93, 1)" stroke-width="1.5"></path><path d="M682.13 208.42L991.05 256.44" stroke="rgba(0, 88, 93, 1)" stroke-width="1.5"></path><path d="M638.39 361.34L638.39 361.34" stroke="rgba(0, 88, 93, 1)" stroke-width="1.5"></path><path d="M638.39 361.34L830.51 492.01" stroke="rgba(0, 88, 93, 1)" stroke-width="1.5"></path><path d="M638.39 361.34L852.92 226.22" stroke="rgba(0, 88, 93, 1)" stroke-width="1.5"></path><path d="M682.56 672.8L682.56 672.8" stroke="rgba(0, 88, 93, 1)" stroke-width="1.5"></path><path d="M682.56 672.8L842.78 689.17" stroke="rgba(0, 88, 93, 1)" stroke-width="1.5"></path><path d="M682.56 672.8L830.51 492.01" stroke="rgba(0, 88, 93, 1)" stroke-width="1.5"></path><path d="M682.56 672.8L956.7 658.68" stroke="rgba(0, 88, 93, 1)" stroke-width="1.5"></path><path d="M857.73 51.61L857.73 51.61" stroke="rgba(0, 88, 93, 1)" stroke-width="1.5"></path><path d="M857.73 51.61L1008.15 65.34" stroke="rgba(0, 88, 93, 1)" stroke-width="1.5"></path><path d="M857.73 51.61L852.92 226.22" stroke="rgba(0, 88, 93, 1)" stroke-width="1.5"></path><path d="M857.73 51.61L976.14 -91.29" stroke="rgba(0, 88, 93, 1)" stroke-width="1.5"></path><path d="M852.92 226.22L852.92 226.22" stroke="rgba(0, 88, 93, 1)" stroke-width="1.5"></path><path d="M852.92 226.22L991.05 256.44" stroke="rgba(0, 88, 93, 1)" stroke-width="1.5"></path><path d="M830.51 492.01L830.51 492.01" stroke="rgba(0, 88, 93, 1)" stroke-width="1.5"></path><path d="M830.51 492.01L964.53 506.44" stroke="rgba(0, 88, 93, 1)" stroke-width="1.5"></path><path d="M830.51 492.01L842.78 689.17" stroke="rgba(0, 88, 93, 1)" stroke-width="1.5"></path><path d="M830.51 492.01L1002.91 379.72" stroke="rgba(0, 88, 93, 1)" stroke-width="1.5"></path><path d="M830.51 492.01L956.7 658.68" stroke="rgba(0, 88, 93, 1)" stroke-width="1.5"></path><path d="M842.78 689.17L842.78 689.17" stroke="rgba(0, 88, 93, 1)" stroke-width="1.5"></path><path d="M842.78 689.17L956.7 658.68" stroke="rgba(0, 88, 93, 1)" stroke-width="1.5"></path><path d="M842.78 689.17L964.53 506.44" stroke="rgba(0, 88, 93, 1)" stroke-width="1.5"></path><path d="M976.14 -91.29L976.14 -91.29" stroke="rgba(0, 88, 93, 1)" stroke-width="1.5"></path><path d="M976.14 -91.29L1103.33 -46.8" stroke="rgba(0, 88, 93, 1)" stroke-width="1.5"></path><path d="M976.14 -91.29L1008.15 65.34" stroke="rgba(0, 88, 93, 1)" stroke-width="1.5"></path><path d="M976.14 -91.29L1103.26 59.7" stroke="rgba(0, 88, 93, 1)" stroke-width="1.5"></path><path d="M1008.15 65.34L1008.15 65.34" stroke="rgba(0, 88, 93, 1)" stroke-width="1.5"></path><path d="M1008.15 65.34L1103.26 59.7" stroke="rgba(0, 88, 93, 1)" stroke-width="1.5"></path><path d="M1008.15 65.34L1103.33 -46.8" stroke="rgba(0, 88, 93, 1)" stroke-width="1.5"></path><path d="M991.05 256.44L991.05 256.44" stroke="rgba(0, 88, 93, 1)" stroke-width="1.5"></path><path d="M991.05 256.44L1002.91 379.72" stroke="rgba(0, 88, 93, 1)" stroke-width="1.5"></path><path d="M991.05 256.44L1118.93 219.45" stroke="rgba(0, 88, 93, 1)" stroke-width="1.5"></path><path d="M1002.91 379.72L1002.91 379.72" stroke="rgba(0, 88, 93, 1)" stroke-width="1.5"></path><path d="M1002.91 379.72L964.53 506.44" stroke="rgba(0, 88, 93, 1)" stroke-width="1.5"></path><path d="M1002.91 379.72L1162.22 356.67" stroke="rgba(0, 88, 93, 1)" stroke-width="1.5"></path><path d="M1002.91 379.72L1121.51 533.12" stroke="rgba(0, 88, 93, 1)" stroke-width="1.5"></path><path d="M964.53 506.44L964.53 506.44" stroke="rgba(0, 88, 93, 1)" stroke-width="1.5"></path><path d="M956.7 658.68L956.7 658.68" stroke="rgba(0, 88, 93, 1)" stroke-width="1.5"></path><path d="M956.7 658.68L964.53 506.44" stroke="rgba(0, 88, 93, 1)" stroke-width="1.5"></path><path d="M956.7 658.68L1156.07 647.21" stroke="rgba(0, 88, 93, 1)" stroke-width="1.5"></path><path d="M956.7 658.68L1121.51 533.12" stroke="rgba(0, 88, 93, 1)" stroke-width="1.5"></path><path d="M1103.33 -46.8L1103.33 -46.8" stroke="rgba(0, 88, 93, 1)" stroke-width="1.5"></path><path d="M1103.33 -46.8L1103.26 59.7" stroke="rgba(0, 88, 93, 1)" stroke-width="1.5"></path><path d="M1103.33 -46.8L1260.75 39.03" stroke="rgba(0, 88, 93, 1)" stroke-width="1.5"></path><path d="M1103.33 -46.8L1311.59 -107.7" stroke="rgba(0, 88, 93, 1)" stroke-width="1.5"></path><path d="M1103.26 59.7L1103.26 59.7" stroke="rgba(0, 88, 93, 1)" stroke-width="1.5"></path><path d="M1103.26 59.7L1260.75 39.03" stroke="rgba(0, 88, 93, 1)" stroke-width="1.5"></path><path d="M1103.26 59.7L1118.93 219.45" stroke="rgba(0, 88, 93, 1)" stroke-width="1.5"></path><path d="M1118.93 219.45L1118.93 219.45" stroke="rgba(0, 88, 93, 1)" stroke-width="1.5"></path><path d="M1118.93 219.45L1251.21 240.18" stroke="rgba(0, 88, 93, 1)" stroke-width="1.5"></path><path d="M1118.93 219.45L1162.22 356.67" stroke="rgba(0, 88, 93, 1)" stroke-width="1.5"></path><path d="M1118.93 219.45L1242.98 342.68" stroke="rgba(0, 88, 93, 1)" stroke-width="1.5"></path><path d="M1162.22 356.67L1162.22 356.67" stroke="rgba(0, 88, 93, 1)" stroke-width="1.5"></path><path d="M1162.22 356.67L1242.98 342.68" stroke="rgba(0, 88, 93, 1)" stroke-width="1.5"></path><path d="M1162.22 356.67L1251.21 240.18" stroke="rgba(0, 88, 93, 1)" stroke-width="1.5"></path><path d="M1162.22 356.67L1121.51 533.12" stroke="rgba(0, 88, 93, 1)" stroke-width="1.5"></path><path d="M1121.51 533.12L1121.51 533.12" stroke="rgba(0, 88, 93, 1)" stroke-width="1.5"></path><path d="M1121.51 533.12L1156.07 647.21" stroke="rgba(0, 88, 93, 1)" stroke-width="1.5"></path><path d="M1121.51 533.12L964.53 506.44" stroke="rgba(0, 88, 93, 1)" stroke-width="1.5"></path><path d="M1121.51 533.12L1285.06 559.78" stroke="rgba(0, 88, 93, 1)" stroke-width="1.5"></path><path d="M1156.07 647.21L1156.07 647.21" stroke="rgba(0, 88, 93, 1)" stroke-width="1.5"></path><path d="M1156.07 647.21L1305.27 685.58" stroke="rgba(0, 88, 93, 1)" stroke-width="1.5"></path><path d="M1311.59 -107.7L1311.59 -107.7" stroke="rgba(0, 88, 93, 1)" stroke-width="1.5"></path><path d="M1311.59 -107.7L1444.01 -102.88" stroke="rgba(0, 88, 93, 1)" stroke-width="1.5"></path><path d="M1311.59 -107.7L1260.75 39.03" stroke="rgba(0, 88, 93, 1)" stroke-width="1.5"></path><path d="M1260.75 39.03L1260.75 39.03" stroke="rgba(0, 88, 93, 1)" stroke-width="1.5"></path><path d="M1260.75 39.03L1436.17 41.67" stroke="rgba(0, 88, 93, 1)" stroke-width="1.5"></path><path d="M1260.75 39.03L1251.21 240.18" stroke="rgba(0, 88, 93, 1)" stroke-width="1.5"></path><path d="M1251.21 240.18L1251.21 240.18" stroke="rgba(0, 88, 93, 1)" stroke-width="1.5"></path><path d="M1251.21 240.18L1242.98 342.68" stroke="rgba(0, 88, 93, 1)" stroke-width="1.5"></path><path d="M1242.98 342.68L1242.98 342.68" stroke="rgba(0, 88, 93, 1)" stroke-width="1.5"></path><path d="M1242.98 342.68L1285.06 559.78" stroke="rgba(0, 88, 93, 1)" stroke-width="1.5"></path><path d="M1242.98 342.68L1121.51 533.12" stroke="rgba(0, 88, 93, 1)" stroke-width="1.5"></path><path d="M1285.06 559.78L1285.06 559.78" stroke="rgba(0, 88, 93, 1)" stroke-width="1.5"></path><path d="M1285.06 559.78L1305.27 685.58" stroke="rgba(0, 88, 93, 1)" stroke-width="1.5"></path><path d="M1285.06 559.78L1412.45 496.67" stroke="rgba(0, 88, 93, 1)" stroke-width="1.5"></path><path d="M1285.06 559.78L1156.07 647.21" stroke="rgba(0, 88, 93, 1)" stroke-width="1.5"></path><path d="M1285.06 559.78L1423.07 643.41" stroke="rgba(0, 88, 93, 1)" stroke-width="1.5"></path><path d="M1305.27 685.58L1305.27 685.58" stroke="rgba(0, 88, 93, 1)" stroke-width="1.5"></path><path d="M1305.27 685.58L1423.07 643.41" stroke="rgba(0, 88, 93, 1)" stroke-width="1.5"></path><path d="M1444.01 -102.88L1444.01 -102.88" stroke="rgba(0, 88, 93, 1)" stroke-width="1.5"></path><path d="M1444.01 -102.88L1436.17 41.67" stroke="rgba(0, 88, 93, 1)" stroke-width="1.5"></path><path d="M1444.01 -102.88L1606.22 43.01" stroke="rgba(0, 88, 93, 1)" stroke-width="1.5"></path><path d="M1444.01 -102.88L1260.75 39.03" stroke="rgba(0, 88, 93, 1)" stroke-width="1.5"></path><path d="M1444.01 -102.88L1454.01 221.42" stroke="rgba(0, 88, 93, 1)" stroke-width="1.5"></path><path d="M1436.17 41.67L1436.17 41.67" stroke="rgba(0, 88, 93, 1)" stroke-width="1.5"></path><path d="M1436.17 41.67L1606.22 43.01" stroke="rgba(0, 88, 93, 1)" stroke-width="1.5"></path><path d="M1436.17 41.67L1454.01 221.42" stroke="rgba(0, 88, 93, 1)" stroke-width="1.5"></path><path d="M1454.01 221.42L1454.01 221.42" stroke="rgba(0, 88, 93, 1)" stroke-width="1.5"></path><path d="M1454.01 221.42L1596.03 355.67" stroke="rgba(0, 88, 93, 1)" stroke-width="1.5"></path><path d="M1454.01 221.42L1251.21 240.18" stroke="rgba(0, 88, 93, 1)" stroke-width="1.5"></path><path d="M1454.01 221.42L1606.22 43.01" stroke="rgba(0, 88, 93, 1)" stroke-width="1.5"></path><path d="M1412.45 496.67L1412.45 496.67" stroke="rgba(0, 88, 93, 1)" stroke-width="1.5"></path><path d="M1423.07 643.41L1423.07 643.41" stroke="rgba(0, 88, 93, 1)" stroke-width="1.5"></path><path d="M1423.07 643.41L1562.71 672.71" stroke="rgba(0, 88, 93, 1)" stroke-width="1.5"></path><path d="M1423.07 643.41L1412.45 496.67" stroke="rgba(0, 88, 93, 1)" stroke-width="1.5"></path><path d="M1423.07 643.41L1570.48 514.98" stroke="rgba(0, 88, 93, 1)" stroke-width="1.5"></path><path d="M1423.07 643.41L1156.07 647.21" stroke="rgba(0, 88, 93, 1)" stroke-width="1.5"></path><path d="M1606.22 43.01L1606.22 43.01" stroke="rgba(0, 88, 93, 1)" stroke-width="1.5"></path><path d="M1596.03 355.67L1596.03 355.67" stroke="rgba(0, 88, 93, 1)" stroke-width="1.5"></path><path d="M1596.03 355.67L1570.48 514.98" stroke="rgba(0, 88, 93, 1)" stroke-width="1.5"></path><path d="M1596.03 355.67L1412.45 496.67" stroke="rgba(0, 88, 93, 1)" stroke-width="1.5"></path><path d="M1570.48 514.98L1570.48 514.98" stroke="rgba(0, 88, 93, 1)" stroke-width="1.5"></path><path d="M1570.48 514.98L1562.71 672.71" stroke="rgba(0, 88, 93, 1)" stroke-width="1.5"></path><path d="M1570.48 514.98L1412.45 496.67" stroke="rgba(0, 88, 93, 1)" stroke-width="1.5"></path><path d="M1570.48 514.98L1285.06 559.78" stroke="rgba(0, 88, 93, 1)" stroke-width="1.5"></path><path d="M1570.48 514.98L1305.27 685.58" stroke="rgba(0, 88, 93, 1)" stroke-width="1.5"></path><path d="M1562.71 672.71L1562.71 672.71" stroke="rgba(0, 88, 93, 1)" stroke-width="1.5"></path><path d="M1562.71 672.71L1412.45 496.67" stroke="rgba(0, 88, 93, 1)" stroke-width="1.5"></path><path d="M1562.71 672.71L1305.27 685.58" stroke="rgba(0, 88, 93, 1)" stroke-width="1.5"></path><path d="M1562.71 672.71L1285.06 559.78" stroke="rgba(0, 88, 93, 1)" stroke-width="1.5"></path><circle r="5" cx="-60.5" cy="372.36" fill="rgba(0, 88, 93, 1)"></circle><circle r="5" cx="-41.65" cy="528.93" fill="rgba(0, 88, 93, 1)"></circle><circle r="5" cx="-58.18" cy="638.4" fill="rgba(0, 88, 93, 1)"></circle><circle r="5" cx="70.29" cy="351.57" fill="rgba(0, 88, 93, 1)"></circle><circle r="5" cx="79.34" cy="560.37" fill="rgba(0, 88, 93, 1)"></circle><circle r="5" cx="110" cy="684.61" fill="rgba(0, 88, 93, 1)"></circle><circle r="5" cx="229.83" cy="376.35" fill="rgba(0, 88, 93, 1)"></circle><circle r="5" cx="199.16" cy="500.71" fill="rgba(0, 88, 93, 1)"></circle><circle r="5" cx="203.19" cy="659.51" fill="rgba(0, 88, 93, 1)"></circle><circle r="5" cx="339.6" cy="362.7" fill="rgba(0, 88, 93, 1)"></circle><circle r="5" cx="389.35" cy="520.6" fill="rgba(0, 88, 93, 1)"></circle><circle r="5" cx="342.34" cy="680.98" fill="rgba(0, 88, 93, 1)"></circle><circle r="5" cx="535.12" cy="367.49" fill="rgba(0, 88, 93, 1)"></circle><circle r="5" cx="555.78" cy="546.2" fill="rgba(0, 88, 93, 1)"></circle><circle r="5" cx="506.96" cy="675.76" fill="rgba(0, 88, 93, 1)"></circle><circle r="5" cx="682.13" cy="208.42" fill="rgba(0, 88, 93, 1)"></circle><circle r="5" cx="638.39" cy="361.34" fill="rgba(0, 88, 93, 1)"></circle><circle r="5" cx="682.56" cy="672.8" fill="rgba(0, 88, 93, 1)"></circle><circle r="5" cx="857.73" cy="51.61" fill="rgba(0, 88, 93, 1)"></circle><circle r="5" cx="852.92" cy="226.22" fill="rgba(0, 88, 93, 1)"></circle><circle r="5" cx="830.51" cy="492.01" fill="rgba(0, 88, 93, 1)"></circle><circle r="5" cx="842.78" cy="689.17" fill="rgba(0, 88, 93, 1)"></circle><circle r="5" cx="976.14" cy="-91.29" fill="rgba(0, 88, 93, 1)"></circle><circle r="5" cx="1008.15" cy="65.34" fill="rgba(0, 88, 93, 1)"></circle><circle r="5" cx="991.05" cy="256.44" fill="rgba(0, 88, 93, 1)"></circle><circle r="5" cx="1002.91" cy="379.72" fill="rgba(0, 88, 93, 1)"></circle><circle r="5" cx="964.53" cy="506.44" fill="rgba(0, 88, 93, 1)"></circle><circle r="5" cx="956.7" cy="658.68" fill="rgba(0, 88, 93, 1)"></circle><circle r="5" cx="1103.33" cy="-46.8" fill="rgba(0, 88, 93, 1)"></circle><circle r="5" cx="1103.26" cy="59.7" fill="rgba(0, 88, 93, 1)"></circle><circle r="5" cx="1118.93" cy="219.45" fill="rgba(0, 88, 93, 1)"></circle><circle r="5" cx="1162.22" cy="356.67" fill="rgba(0, 88, 93, 1)"></circle><circle r="5" cx="1121.51" cy="533.12" fill="rgba(0, 88, 93, 1)"></circle><circle r="5" cx="1156.07" cy="647.21" fill="rgba(0, 88, 93, 1)"></circle><circle r="5" cx="1311.59" cy="-107.7" fill="rgba(0, 88, 93, 1)"></circle><circle r="5" cx="1260.75" cy="39.03" fill="rgba(0, 88, 93, 1)"></circle><circle r="5" cx="1251.21" cy="240.18" fill="rgba(0, 88, 93, 1)"></circle><circle r="5" cx="1242.98" cy="342.68" fill="rgba(0, 88, 93, 1)"></circle><circle r="5" cx="1285.06" cy="559.78" fill="rgba(0, 88, 93, 1)"></circle><circle r="5" cx="1305.27" cy="685.58" fill="rgba(0, 88, 93, 1)"></circle><circle r="5" cx="1444.01" cy="-102.88" fill="rgba(0, 88, 93, 1)"></circle><circle r="5" cx="1436.17" cy="41.67" fill="rgba(0, 88, 93, 1)"></circle><circle r="5" cx="1454.01" cy="221.42" fill="rgba(0, 88, 93, 1)"></circle><circle r="5" cx="1412.45" cy="496.67" fill="rgba(0, 88, 93, 1)"></circle><circle r="5" cx="1423.07" cy="643.41" fill="rgba(0, 88, 93, 1)"></circle><circle r="5" cx="1606.22" cy="43.01" fill="rgba(0, 88, 93, 1)"></circle><circle r="5" cx="1596.03" cy="355.67" fill="rgba(0, 88, 93, 1)"></circle><circle r="5" cx="1570.48" cy="514.98" fill="rgba(0, 88, 93, 1)"></circle><circle r="5" cx="1562.71" cy="672.71" fill="rgba(0, 88, 93, 1)"></circle><path d="M394.51 663.14L394.51 663.14" stroke="hsl(188.89999999999998, 100%, 65%)" stroke-width="1.5"></path><path d="M394.51 663.14L396.27 545.01" stroke="hsl(188.89999999999998, 100%, 65%)" stroke-width="1.5"></path><path d="M394.51 663.14L231.28 703.5" stroke="hsl(188.89999999999998, 100%, 65%)" stroke-width="1.5"></path><path d="M394.51 663.14L527.2 506.43" stroke="hsl(188.89999999999998, 100%, 65%)" stroke-width="1.5"></path><path d="M394.51 663.14L200.88 511.8" stroke="hsl(188.89999999999998, 100%, 65%)" stroke-width="1.5"></path><path d="M394.51 663.14L648.31 691.92" stroke="hsl(188.89999999999998, 100%, 65%)" stroke-width="1.5"></path><path d="M847.18 400.45L847.18 400.45" stroke="hsl(188.89999999999998, 100%, 65%)" stroke-width="1.5"></path><path d="M847.18 400.45L988.74 359.41" stroke="hsl(188.89999999999998, 100%, 65%)" stroke-width="1.5"></path><path d="M847.18 400.45L702.22 359.86" stroke="hsl(188.89999999999998, 100%, 65%)" stroke-width="1.5"></path><path d="M847.18 400.45L807.98 550.42" stroke="hsl(188.89999999999998, 100%, 65%)" stroke-width="1.5"></path><path d="M810.78 681.87L810.78 681.87" stroke="hsl(188.89999999999998, 100%, 65%)" stroke-width="1.5"></path><path d="M810.78 681.87L807.98 550.42" stroke="hsl(188.89999999999998, 100%, 65%)" stroke-width="1.5"></path><path d="M810.78 681.87L648.31 691.92" stroke="hsl(188.89999999999998, 100%, 65%)" stroke-width="1.5"></path><path d="M1277.02 350.77L1277.02 350.77" stroke="hsl(188.89999999999998, 100%, 65%)" stroke-width="1.5"></path><path d="M1277.02 350.77L1401.13 377.2" stroke="hsl(188.89999999999998, 100%, 65%)" stroke-width="1.5"></path><path d="M1277.02 350.77L1245.9 216.25" stroke="hsl(188.89999999999998, 100%, 65%)" stroke-width="1.5"></path><path d="M1277.02 350.77L1136 406.66" stroke="hsl(188.89999999999998, 100%, 65%)" stroke-width="1.5"></path><path d="M1593.33 644.18L1593.33 644.18" stroke="hsl(188.89999999999998, 100%, 65%)" stroke-width="1.5"></path><path d="M1593.33 644.18L1566.2 496.75" stroke="hsl(188.89999999999998, 100%, 65%)" stroke-width="1.5"></path><path d="M1593.33 644.18L1456.27 706.38" stroke="hsl(188.89999999999998, 100%, 65%)" stroke-width="1.5"></path><path d="M1593.33 644.18L1445.77 541.76" stroke="hsl(188.89999999999998, 100%, 65%)" stroke-width="1.5"></path><path d="M1593.33 644.18L1557.96 387.61" stroke="hsl(188.89999999999998, 100%, 65%)" stroke-width="1.5"></path><path d="M1593.33 644.18L1401.13 377.2" stroke="hsl(188.89999999999998, 100%, 65%)" stroke-width="1.5"></path><path d="M-67.54 493.57L-67.54 493.57" stroke="hsl(188.89999999999998, 100%, 65%)" stroke-width="1.5"></path><path d="M-67.54 493.57L47.75 506.9" stroke="hsl(188.89999999999998, 100%, 65%)" stroke-width="1.5"></path><path d="M-67.54 493.57L-65.33 645.77" stroke="hsl(188.89999999999998, 100%, 65%)" stroke-width="1.5"></path><path d="M-67.54 493.57L70.31 662.78" stroke="hsl(188.89999999999998, 100%, 65%)" stroke-width="1.5"></path><path d="M-67.54 493.57L200.88 511.8" stroke="hsl(188.89999999999998, 100%, 65%)" stroke-width="1.5"></path><path d="M-67.54 493.57L231.28 703.5" stroke="hsl(188.89999999999998, 100%, 65%)" stroke-width="1.5"></path><path d="M-65.33 645.77L-65.33 645.77" stroke="hsl(188.89999999999998, 100%, 65%)" stroke-width="1.5"></path><path d="M-65.33 645.77L70.31 662.78" stroke="hsl(188.89999999999998, 100%, 65%)" stroke-width="1.5"></path><path d="M-65.33 645.77L47.75 506.9" stroke="hsl(188.89999999999998, 100%, 65%)" stroke-width="1.5"></path><path d="M-65.33 645.77L200.88 511.8" stroke="hsl(188.89999999999998, 100%, 65%)" stroke-width="1.5"></path><path d="M-65.33 645.77L231.28 703.5" stroke="hsl(188.89999999999998, 100%, 65%)" stroke-width="1.5"></path><path d="M-65.33 645.77L394.51 663.14" stroke="hsl(188.89999999999998, 100%, 65%)" stroke-width="1.5"></path><path d="M47.75 506.9L47.75 506.9" stroke="hsl(188.89999999999998, 100%, 65%)" stroke-width="1.5"></path><path d="M47.75 506.9L200.88 511.8" stroke="hsl(188.89999999999998, 100%, 65%)" stroke-width="1.5"></path><path d="M70.31 662.78L70.31 662.78" stroke="hsl(188.89999999999998, 100%, 65%)" stroke-width="1.5"></path><path d="M70.31 662.78L47.75 506.9" stroke="hsl(188.89999999999998, 100%, 65%)" stroke-width="1.5"></path><path d="M70.31 662.78L231.28 703.5" stroke="hsl(188.89999999999998, 100%, 65%)" stroke-width="1.5"></path><path d="M70.31 662.78L200.88 511.8" stroke="hsl(188.89999999999998, 100%, 65%)" stroke-width="1.5"></path><path d="M70.31 662.78L394.51 663.14" stroke="hsl(188.89999999999998, 100%, 65%)" stroke-width="1.5"></path><path d="M200.88 511.8L200.88 511.8" stroke="hsl(188.89999999999998, 100%, 65%)" stroke-width="1.5"></path><path d="M200.88 511.8L231.28 703.5" stroke="hsl(188.89999999999998, 100%, 65%)" stroke-width="1.5"></path><path d="M200.88 511.8L396.27 545.01" stroke="hsl(188.89999999999998, 100%, 65%)" stroke-width="1.5"></path><path d="M231.28 703.5L231.28 703.5" stroke="hsl(188.89999999999998, 100%, 65%)" stroke-width="1.5"></path><path d="M231.28 703.5L396.27 545.01" stroke="hsl(188.89999999999998, 100%, 65%)" stroke-width="1.5"></path><path d="M396.27 545.01L396.27 545.01" stroke="hsl(188.89999999999998, 100%, 65%)" stroke-width="1.5"></path><path d="M517.42 411.71L517.42 411.71" stroke="hsl(188.89999999999998, 100%, 65%)" stroke-width="1.5"></path><path d="M517.42 411.71L527.2 506.43" stroke="hsl(188.89999999999998, 100%, 65%)" stroke-width="1.5"></path><path d="M517.42 411.71L396.27 545.01" stroke="hsl(188.89999999999998, 100%, 65%)" stroke-width="1.5"></path><path d="M527.2 506.43L527.2 506.43" stroke="hsl(188.89999999999998, 100%, 65%)" stroke-width="1.5"></path><path d="M527.2 506.43L396.27 545.01" stroke="hsl(188.89999999999998, 100%, 65%)" stroke-width="1.5"></path><path d="M527.2 506.43L688.43 513.04" stroke="hsl(188.89999999999998, 100%, 65%)" stroke-width="1.5"></path><path d="M527.2 506.43L648.31 691.92" stroke="hsl(188.89999999999998, 100%, 65%)" stroke-width="1.5"></path><path d="M702.22 359.86L702.22 359.86" stroke="hsl(188.89999999999998, 100%, 65%)" stroke-width="1.5"></path><path d="M702.22 359.86L688.43 513.04" stroke="hsl(188.89999999999998, 100%, 65%)" stroke-width="1.5"></path><path d="M702.22 359.86L517.42 411.71" stroke="hsl(188.89999999999998, 100%, 65%)" stroke-width="1.5"></path><path d="M702.22 359.86L807.98 550.42" stroke="hsl(188.89999999999998, 100%, 65%)" stroke-width="1.5"></path><path d="M702.22 359.86L527.2 506.43" stroke="hsl(188.89999999999998, 100%, 65%)" stroke-width="1.5"></path><path d="M688.43 513.04L688.43 513.04" stroke="hsl(188.89999999999998, 100%, 65%)" stroke-width="1.5"></path><path d="M688.43 513.04L807.98 550.42" stroke="hsl(188.89999999999998, 100%, 65%)" stroke-width="1.5"></path><path d="M648.31 691.92L648.31 691.92" stroke="hsl(188.89999999999998, 100%, 65%)" stroke-width="1.5"></path><path d="M648.31 691.92L688.43 513.04" stroke="hsl(188.89999999999998, 100%, 65%)" stroke-width="1.5"></path><path d="M648.31 691.92L807.98 550.42" stroke="hsl(188.89999999999998, 100%, 65%)" stroke-width="1.5"></path><path d="M807.98 550.42L807.98 550.42" stroke="hsl(188.89999999999998, 100%, 65%)" stroke-width="1.5"></path><path d="M988.74 359.41L988.74 359.41" stroke="hsl(188.89999999999998, 100%, 65%)" stroke-width="1.5"></path><path d="M988.74 359.41L1136 406.66" stroke="hsl(188.89999999999998, 100%, 65%)" stroke-width="1.5"></path><path d="M988.74 359.41L1135.07 248.52" stroke="hsl(188.89999999999998, 100%, 65%)" stroke-width="1.5"></path><path d="M988.74 359.41L1115.55 499.89" stroke="hsl(188.89999999999998, 100%, 65%)" stroke-width="1.5"></path><path d="M988.74 359.41L807.98 550.42" stroke="hsl(188.89999999999998, 100%, 65%)" stroke-width="1.5"></path><path d="M988.74 359.41L702.22 359.86" stroke="hsl(188.89999999999998, 100%, 65%)" stroke-width="1.5"></path><path d="M1132.61 104.66L1132.61 104.66" stroke="hsl(188.89999999999998, 100%, 65%)" stroke-width="1.5"></path><path d="M1132.61 104.66L1249.34 111.29" stroke="hsl(188.89999999999998, 100%, 65%)" stroke-width="1.5"></path><path d="M1132.61 104.66L1135.07 248.52" stroke="hsl(188.89999999999998, 100%, 65%)" stroke-width="1.5"></path><path d="M1132.61 104.66L1245.9 216.25" stroke="hsl(188.89999999999998, 100%, 65%)" stroke-width="1.5"></path><path d="M1132.61 104.66L1298.46 -55.17" stroke="hsl(188.89999999999998, 100%, 65%)" stroke-width="1.5"></path><path d="M1132.61 104.66L1398.39 69.03" stroke="hsl(188.89999999999998, 100%, 65%)" stroke-width="1.5"></path><path d="M1135.07 248.52L1135.07 248.52" stroke="hsl(188.89999999999998, 100%, 65%)" stroke-width="1.5"></path><path d="M1135.07 248.52L1245.9 216.25" stroke="hsl(188.89999999999998, 100%, 65%)" stroke-width="1.5"></path><path d="M1135.07 248.52L1136 406.66" stroke="hsl(188.89999999999998, 100%, 65%)" stroke-width="1.5"></path><path d="M1135.07 248.52L1277.02 350.77" stroke="hsl(188.89999999999998, 100%, 65%)" stroke-width="1.5"></path><path d="M1135.07 248.52L1249.34 111.29" stroke="hsl(188.89999999999998, 100%, 65%)" stroke-width="1.5"></path><path d="M1136 406.66L1136 406.66" stroke="hsl(188.89999999999998, 100%, 65%)" stroke-width="1.5"></path><path d="M1136 406.66L1115.55 499.89" stroke="hsl(188.89999999999998, 100%, 65%)" stroke-width="1.5"></path><path d="M1136 406.66L1254 506.14" stroke="hsl(188.89999999999998, 100%, 65%)" stroke-width="1.5"></path><path d="M1115.55 499.89L1115.55 499.89" stroke="hsl(188.89999999999998, 100%, 65%)" stroke-width="1.5"></path><path d="M1115.55 499.89L1254 506.14" stroke="hsl(188.89999999999998, 100%, 65%)" stroke-width="1.5"></path><path d="M1129.85 678.8L1129.85 678.8" stroke="hsl(188.89999999999998, 100%, 65%)" stroke-width="1.5"></path><path d="M1129.85 678.8L1115.55 499.89" stroke="hsl(188.89999999999998, 100%, 65%)" stroke-width="1.5"></path><path d="M1129.85 678.8L1254 506.14" stroke="hsl(188.89999999999998, 100%, 65%)" stroke-width="1.5"></path><path d="M1129.85 678.8L1136 406.66" stroke="hsl(188.89999999999998, 100%, 65%)" stroke-width="1.5"></path><path d="M1298.46 -55.17L1298.46 -55.17" stroke="hsl(188.89999999999998, 100%, 65%)" stroke-width="1.5"></path><path d="M1298.46 -55.17L1423.81 -75.79" stroke="hsl(188.89999999999998, 100%, 65%)" stroke-width="1.5"></path><path d="M1298.46 -55.17L1398.39 69.03" stroke="hsl(188.89999999999998, 100%, 65%)" stroke-width="1.5"></path><path d="M1298.46 -55.17L1249.34 111.29" stroke="hsl(188.89999999999998, 100%, 65%)" stroke-width="1.5"></path><path d="M1298.46 -55.17L1541.78 -80.08" stroke="hsl(188.89999999999998, 100%, 65%)" stroke-width="1.5"></path><path d="M1298.46 -55.17L1245.9 216.25" stroke="hsl(188.89999999999998, 100%, 65%)" stroke-width="1.5"></path><path d="M1249.34 111.29L1249.34 111.29" stroke="hsl(188.89999999999998, 100%, 65%)" stroke-width="1.5"></path><path d="M1249.34 111.29L1245.9 216.25" stroke="hsl(188.89999999999998, 100%, 65%)" stroke-width="1.5"></path><path d="M1249.34 111.29L1398.39 69.03" stroke="hsl(188.89999999999998, 100%, 65%)" stroke-width="1.5"></path><path d="M1249.34 111.29L1400.44 249.29" stroke="hsl(188.89999999999998, 100%, 65%)" stroke-width="1.5"></path><path d="M1245.9 216.25L1245.9 216.25" stroke="hsl(188.89999999999998, 100%, 65%)" stroke-width="1.5"></path><path d="M1245.9 216.25L1400.44 249.29" stroke="hsl(188.89999999999998, 100%, 65%)" stroke-width="1.5"></path><path d="M1254 506.14L1254 506.14" stroke="hsl(188.89999999999998, 100%, 65%)" stroke-width="1.5"></path><path d="M1254 506.14L1277.02 350.77" stroke="hsl(188.89999999999998, 100%, 65%)" stroke-width="1.5"></path><path d="M1254 506.14L1445.77 541.76" stroke="hsl(188.89999999999998, 100%, 65%)" stroke-width="1.5"></path><path d="M1254 506.14L1401.13 377.2" stroke="hsl(188.89999999999998, 100%, 65%)" stroke-width="1.5"></path><path d="M1423.81 -75.79L1423.81 -75.79" stroke="hsl(188.89999999999998, 100%, 65%)" stroke-width="1.5"></path><path d="M1423.81 -75.79L1541.78 -80.08" stroke="hsl(188.89999999999998, 100%, 65%)" stroke-width="1.5"></path><path d="M1398.39 69.03L1398.39 69.03" stroke="hsl(188.89999999999998, 100%, 65%)" stroke-width="1.5"></path><path d="M1398.39 69.03L1423.81 -75.79" stroke="hsl(188.89999999999998, 100%, 65%)" stroke-width="1.5"></path><path d="M1398.39 69.03L1400.44 249.29" stroke="hsl(188.89999999999998, 100%, 65%)" stroke-width="1.5"></path><path d="M1398.39 69.03L1541.78 -80.08" stroke="hsl(188.89999999999998, 100%, 65%)" stroke-width="1.5"></path><path d="M1398.39 69.03L1245.9 216.25" stroke="hsl(188.89999999999998, 100%, 65%)" stroke-width="1.5"></path><path d="M1400.44 249.29L1400.44 249.29" stroke="hsl(188.89999999999998, 100%, 65%)" stroke-width="1.5"></path><path d="M1400.44 249.29L1401.13 377.2" stroke="hsl(188.89999999999998, 100%, 65%)" stroke-width="1.5"></path><path d="M1401.13 377.2L1401.13 377.2" stroke="hsl(188.89999999999998, 100%, 65%)" stroke-width="1.5"></path><path d="M1445.77 541.76L1445.77 541.76" stroke="hsl(188.89999999999998, 100%, 65%)" stroke-width="1.5"></path><path d="M1445.77 541.76L1566.2 496.75" stroke="hsl(188.89999999999998, 100%, 65%)" stroke-width="1.5"></path><path d="M1445.77 541.76L1456.27 706.38" stroke="hsl(188.89999999999998, 100%, 65%)" stroke-width="1.5"></path><path d="M1456.27 706.38L1456.27 706.38" stroke="hsl(188.89999999999998, 100%, 65%)" stroke-width="1.5"></path><path d="M1456.27 706.38L1566.2 496.75" stroke="hsl(188.89999999999998, 100%, 65%)" stroke-width="1.5"></path><path d="M1541.78 -80.08L1541.78 -80.08" stroke="hsl(188.89999999999998, 100%, 65%)" stroke-width="1.5"></path><path d="M1541.78 -80.08L1602.35 256.2" stroke="hsl(188.89999999999998, 100%, 65%)" stroke-width="1.5"></path><path d="M1541.78 -80.08L1249.34 111.29" stroke="hsl(188.89999999999998, 100%, 65%)" stroke-width="1.5"></path><path d="M1602.35 256.2L1602.35 256.2" stroke="hsl(188.89999999999998, 100%, 65%)" stroke-width="1.5"></path><path d="M1602.35 256.2L1557.96 387.61" stroke="hsl(188.89999999999998, 100%, 65%)" stroke-width="1.5"></path><path d="M1602.35 256.2L1400.44 249.29" stroke="hsl(188.89999999999998, 100%, 65%)" stroke-width="1.5"></path><path d="M1602.35 256.2L1401.13 377.2" stroke="hsl(188.89999999999998, 100%, 65%)" stroke-width="1.5"></path><path d="M1602.35 256.2L1566.2 496.75" stroke="hsl(188.89999999999998, 100%, 65%)" stroke-width="1.5"></path><path d="M1602.35 256.2L1398.39 69.03" stroke="hsl(188.89999999999998, 100%, 65%)" stroke-width="1.5"></path><path d="M1557.96 387.61L1557.96 387.61" stroke="hsl(188.89999999999998, 100%, 65%)" stroke-width="1.5"></path><path d="M1557.96 387.61L1566.2 496.75" stroke="hsl(188.89999999999998, 100%, 65%)" stroke-width="1.5"></path><path d="M1557.96 387.61L1401.13 377.2" stroke="hsl(188.89999999999998, 100%, 65%)" stroke-width="1.5"></path><path d="M1566.2 496.75L1566.2 496.75" stroke="hsl(188.89999999999998, 100%, 65%)" stroke-width="1.5"></path><path d="M1566.2 496.75L1401.13 377.2" stroke="hsl(188.89999999999998, 100%, 65%)" stroke-width="1.5"></path><circle r="25" cx="394.51" cy="663.14" fill="url(#SvgjsRadialGradient1041)"></circle><circle r="25" cx="847.18" cy="400.45" fill="url(#SvgjsRadialGradient1041)"></circle><circle r="25" cx="810.78" cy="681.87" fill="url(#SvgjsRadialGradient1041)"></circle><circle r="25" cx="1277.02" cy="350.77" fill="url(#SvgjsRadialGradient1041)"></circle><circle r="25" cx="1593.33" cy="644.18" fill="url(#SvgjsRadialGradient1041)"></circle><circle r="5" cx="-67.54" cy="493.57" fill="#80ecff"></circle><circle r="5" cx="-65.33" cy="645.77" fill="#80ecff"></circle><circle r="5" cx="47.75" cy="506.9" fill="#80ecff"></circle><circle r="5" cx="70.31" cy="662.78" fill="#80ecff"></circle><circle r="5" cx="200.88" cy="511.8" fill="#80ecff"></circle><circle r="5" cx="231.28" cy="703.5" fill="#80ecff"></circle><circle r="5" cx="396.27" cy="545.01" fill="#80ecff"></circle><circle r="5" cx="517.42" cy="411.71" fill="#80ecff"></circle><circle r="5" cx="527.2" cy="506.43" fill="#80ecff"></circle><circle r="5" cx="702.22" cy="359.86" fill="#80ecff"></circle><circle r="5" cx="688.43" cy="513.04" fill="#80ecff"></circle><circle r="5" cx="648.31" cy="691.92" fill="#80ecff"></circle><circle r="5" cx="807.98" cy="550.42" fill="#80ecff"></circle><circle r="5" cx="988.74" cy="359.41" fill="#80ecff"></circle><circle r="5" cx="1132.61" cy="104.66" fill="#80ecff"></circle><circle r="5" cx="1135.07" cy="248.52" fill="#80ecff"></circle><circle r="5" cx="1136" cy="406.66" fill="#80ecff"></circle><circle r="5" cx="1115.55" cy="499.89" fill="#80ecff"></circle><circle r="5" cx="1129.85" cy="678.8" fill="#80ecff"></circle><circle r="5" cx="1298.46" cy="-55.17" fill="#80ecff"></circle><circle r="5" cx="1249.34" cy="111.29" fill="#80ecff"></circle><circle r="5" cx="1245.9" cy="216.25" fill="#80ecff"></circle><circle r="5" cx="1254" cy="506.14" fill="#80ecff"></circle><circle r="5" cx="1423.81" cy="-75.79" fill="#80ecff"></circle><circle r="5" cx="1398.39" cy="69.03" fill="#80ecff"></circle><circle r="5" cx="1400.44" cy="249.29" fill="#80ecff"></circle><circle r="5" cx="1401.13" cy="377.2" fill="#80ecff"></circle><circle r="5" cx="1445.77" cy="541.76" fill="#80ecff"></circle><circle r="5" cx="1456.27" cy="706.38" fill="#80ecff"></circle><circle r="5" cx="1541.78" cy="-80.08" fill="#80ecff"></circle><circle r="5" cx="1602.35" cy="256.2" fill="#80ecff"></circle><circle r="5" cx="1557.96" cy="387.61" fill="#80ecff"></circle><circle r="5" cx="1566.2" cy="496.75" fill="#80ecff"></circle></g><defs><mask id="SvgjsMask1040"><rect width="1440" height="560" fill="#ffffff"></rect></mask><radialGradient id="SvgjsRadialGradient1041"><stop stop-color="#ffffff" offset="0.1"></stop><stop stop-color="rgba(0, 217, 255, 1)" offset="0.2"></stop><stop stop-color="rgba(0, 217, 255, 0)" offset="1"></stop></radialGradient></defs></svg>