<svg xmlns="http://www.w3.org/2000/svg" version="1.1" xmlns:xlink="http://www.w3.org/1999/xlink" xmlns:svgjs="http://svgjs.com/svgjs" width="1440" height="560" preserveAspectRatio="none" viewBox="0 0 1440 560"><g mask="url(&quot;#SvgjsMask1127&quot;)" fill="none"><rect width="1440" height="560" x="0" y="0" fill="#0e2a47"></rect><path d="M26.52 -47.03L129.58 12.47L129.58 131.47L26.52 190.97L-76.54 131.47L-76.54 12.47zM129.58 131.47L232.64 190.97L232.64 309.97L129.58 369.47L26.52 309.97L26.52 190.97zM335.7 488.47L438.76 547.97L438.76 666.97L335.7 726.47L232.64 666.97L232.64 547.97zM541.82 131.47L644.88 190.97L644.88 309.97L541.82 369.47L438.76 309.97L438.76 190.97zM644.88 -47.03L747.94 12.47L747.94 131.47L644.88 190.97L541.82 131.47L541.82 12.47zM644.88 309.97L747.94 369.47L747.94 488.47L644.88 547.97L541.82 488.47L541.82 369.47zM747.94 488.47L851 547.97L851 666.97L747.94 726.47L644.88 666.97L644.88 547.97zM851 309.97L954.06 369.47L954.06 488.47L851 547.97L747.94 488.47L747.94 369.47zM1160.18 131.47L1263.24 190.97L1263.24 309.97L1160.18 369.47L1057.12 309.97L1057.12 190.97zM1160.18 488.47L1263.24 547.97L1263.24 666.97L1160.18 726.47L1057.12 666.97L1057.12 547.97zM1263.24 -47.03L1366.3 12.47L1366.3 131.47L1263.24 190.97L1160.18 131.47L1160.18 12.47z" stroke="#03305d" stroke-width="2"></path><path d="M155.4 -104.98L296.57 -23.48L296.57 139.52L155.4 221.02L14.23 139.52L14.23 -23.48zM720.06 384.02L861.23 465.52L861.23 628.52L720.06 710.02L578.9 628.52L578.9 465.52zM1143.56 139.52L1284.73 221.02L1284.73 384.02L1143.56 465.52L1002.4 384.02L1002.4 221.02zM1002.4 384.02L1143.56 465.52L1143.56 628.52L1002.4 710.02L861.23 628.52L861.23 465.52z" stroke="rgba(0, 255, 255, 1)" stroke-width="2"></path><path d="M139.1 -104.98 a16.3 16.3 0 1 0 32.6 0 a16.3 16.3 0 1 0 -32.6 0zM280.27 -23.48 a16.3 16.3 0 1 0 32.6 0 a16.3 16.3 0 1 0 -32.6 0zM280.27 139.52 a16.3 16.3 0 1 0 32.6 0 a16.3 16.3 0 1 0 -32.6 0zM139.1 221.02 a16.3 16.3 0 1 0 32.6 0 a16.3 16.3 0 1 0 -32.6 0zM-2.07 139.52 a16.3 16.3 0 1 0 32.6 0 a16.3 16.3 0 1 0 -32.6 0zM-2.07 -23.48 a16.3 16.3 0 1 0 32.6 0 a16.3 16.3 0 1 0 -32.6 0zM703.76 384.02 a16.3 16.3 0 1 0 32.6 0 a16.3 16.3 0 1 0 -32.6 0zM844.93 465.52 a16.3 16.3 0 1 0 32.6 0 a16.3 16.3 0 1 0 -32.6 0zM844.93 628.52 a16.3 16.3 0 1 0 32.6 0 a16.3 16.3 0 1 0 -32.6 0zM703.76 710.02 a16.3 16.3 0 1 0 32.6 0 a16.3 16.3 0 1 0 -32.6 0zM562.6 628.52 a16.3 16.3 0 1 0 32.6 0 a16.3 16.3 0 1 0 -32.6 0zM562.6 465.52 a16.3 16.3 0 1 0 32.6 0 a16.3 16.3 0 1 0 -32.6 0zM1127.26 139.52 a16.3 16.3 0 1 0 32.6 0 a16.3 16.3 0 1 0 -32.6 0zM1268.43 221.02 a16.3 16.3 0 1 0 32.6 0 a16.3 16.3 0 1 0 -32.6 0zM1268.43 384.02 a16.3 16.3 0 1 0 32.6 0 a16.3 16.3 0 1 0 -32.6 0zM1127.26 465.52 a16.3 16.3 0 1 0 32.6 0 a16.3 16.3 0 1 0 -32.6 0zM986.1 384.02 a16.3 16.3 0 1 0 32.6 0 a16.3 16.3 0 1 0 -32.6 0zM986.1 221.02 a16.3 16.3 0 1 0 32.6 0 a16.3 16.3 0 1 0 -32.6 0zM1127.26 628.52 a16.3 16.3 0 1 0 32.6 0 a16.3 16.3 0 1 0 -32.6 0zM986.1 710.02 a16.3 16.3 0 1 0 32.6 0 a16.3 16.3 0 1 0 -32.6 0z" fill="rgba(0, 255, 255, 1)"></path></g><defs><mask id="SvgjsMask1127"><rect width="1440" height="560" fill="#ffffff"></rect></mask></defs></svg>